<svg version="1.1" xmlns="http://www.w3.org/2000/svg" viewBox="0 0 77.10865588970364 77.10865588970364" width="231.32596766911092" height="231.32596766911092">
  <!-- svg-source:excalidraw -->
  
  <defs>
    <style class="style-fonts">
      @font-face {
        font-family: "Virgil";
        src: url("https://excalidraw.com/Virgil.woff2");
      }
      @font-face {
        font-family: "Cascadia";
        src: url("https://excalidraw.com/Cascadia.woff2");
      }
      @font-face {
        font-family: "Assistant";
        src: url("https://excalidraw.com/Assistant-Regular.woff2");
      }
    </style>
    
  </defs>
  <g stroke-linecap="round"><g transform="translate(28.611920796077584 47.54241504926051) rotate(0 9.476133595184137 -9.454360657998222)"><path d="M0 0 C5.8 -5.78, 9.56 -9.03, 18.95 -18.91 M0 0 C4.72 -4.71, 8.68 -8.67, 18.95 -18.91" stroke="#000000" stroke-width="1" fill="none"></path></g></g><mask></mask><g stroke-linecap="round"><g transform="translate(47.564187986446086 47.54241504926051) rotate(0 -9.476133595184137 -9.454360657998222)"><path d="M0 0 C-7.49 -6.81, -15.46 -15.14, -18.95 -18.91 M0 0 C-4.97 -4.64, -9.72 -9.96, -18.95 -18.91" stroke="#000000" stroke-width="1" fill="none"></path></g></g><mask></mask><g stroke-linecap="round" transform="translate(10 10) rotate(0 28.55432794485182 28.55432794485182)"><path d="M22.48 0.09 C28.24 -1.53, 37.39 0.22, 42.68 3.12 C47.98 6.01, 52.15 11.71, 54.25 17.46 C56.34 23.21, 56.98 31.85, 55.23 37.61 C53.48 43.38, 48.97 48.98, 43.75 52.08 C38.52 55.17, 30.18 57.03, 23.89 56.21 C17.6 55.39, 9.92 51.65, 5.98 47.15 C2.05 42.66, 0.25 35.19, 0.26 29.25 C0.28 23.32, 2.03 16.41, 6.07 11.53 C10.1 6.66, 20.73 1.94, 24.48 -0.01 C28.22 -1.97, 28.35 -0.54, 28.54 -0.19 M35.99 2.12 C41.45 3.27, 48.31 7.94, 51.92 12.95 C55.53 17.96, 58.09 26.31, 57.66 32.19 C57.22 38.06, 54.07 44.22, 49.31 48.18 C44.56 52.14, 35.36 55.34, 29.12 55.94 C22.88 56.53, 16.58 55.03, 11.85 51.74 C7.12 48.44, 2.08 42.17, 0.75 36.14 C-0.58 30.12, 1.05 21.1, 3.85 15.58 C6.66 10.07, 12.27 5.36, 17.57 3.07 C22.88 0.79, 32.33 2.12, 35.67 1.86 C39.01 1.61, 37.72 1.31, 37.61 1.54" stroke="#000000" stroke-width="1" fill="none"></path></g></svg>